<?xml version="1.0" standalone="no"?>
<!DOCTYPE svg PUBLIC "-//W3C//DTD SVG 20010904//EN"
 "http://www.w3.org/TR/2001/REC-SVG-20010904/DTD/svg10.dtd">
<svg version="1.0" xmlns="http://www.w3.org/2000/svg"
 width="1080.000000pt" height="1080.000000pt" viewBox="0 0 1080.000000 1080.000000"
 preserveAspectRatio="xMidYMid meet">
<metadata>
Created by potrace 1.14, written by Peter Selinger 2001-2017
</metadata>
<g transform="translate(0.000000,1080.000000) scale(0.100000,-0.100000)"
fill="#000000" stroke="none">
<path d="M0 5400 l0 -5400 5400 0 5400 0 0 5400 0 5400 -5400 0 -5400 0 0
-5400z m2657 866 c16 -19 23 -40 23 -68 0 -44 -14 -61 -110 -131 -56 -41 -90
-91 -90 -132 0 -32 7 -43 104 -168 53 -68 70 -121 63 -197 -12 -139 -159 -326
-284 -360 -79 -23 -143 18 -143 90 1 46 14 67 83 139 75 78 107 127 107 162 0
19 -25 65 -73 136 -40 59 -79 123 -86 141 -43 105 46 289 184 377 63 40 77 44
144 41 45 -2 59 -8 78 -30z m271 -39 c6 -5 12 -22 12 -37 0 -61 -106 -105
-152 -63 -66 60 68 157 140 100z m1902 -19 c19 -32 20 -52 20 -469 0 -436 0
-436 -22 -469 -13 -19 -35 -37 -50 -41 -99 -26 -160 161 -161 496 0 322 59
515 160 515 27 0 37 -6 53 -32z m-1369 -171 c19 -12 45 -43 58 -67 l24 -44 31
36 c66 76 152 101 193 56 55 -61 73 -156 73 -388 -1 -278 -36 -386 -122 -378
-26 2 -37 10 -50 38 -15 30 -18 65 -18 247 0 217 -3 243 -25 243 -40 0 -68
-96 -81 -270 -13 -188 -45 -282 -98 -288 -35 -4 -62 20 -77 67 -6 20 -14 129
-18 244 -6 169 -10 210 -23 223 -14 14 -17 14 -36 -6 -40 -43 -54 -128 -45
-268 11 -184 6 -209 -47 -237 -47 -24 -93 3 -118 70 -50 133 -51 541 -2 652
36 81 102 94 142 27 l21 -35 26 23 c43 39 59 50 98 64 51 18 55 17 94 -9z
m1901 -12 c94 -67 119 -184 62 -299 -44 -90 -121 -149 -231 -176 -49 -12 -52
-21 -21 -50 36 -33 88 -27 163 21 75 47 116 50 147 8 47 -63 -36 -188 -164
-249 -35 -17 -79 -30 -99 -30 -163 0 -289 168 -289 385 0 181 79 347 192 404
35 18 57 21 120 19 66 -3 82 -7 120 -33z m-2460 -22 c47 -56 63 -194 48 -427
-11 -190 -27 -261 -65 -295 -54 -50 -104 -24 -132 67 -15 47 -18 96 -18 277 0
242 11 304 61 364 30 36 81 42 106 14z m1157 -3 c10 -5 24 -23 31 -40 7 -16
15 -30 18 -30 3 0 26 14 52 30 63 41 145 58 198 42 102 -31 162 -158 162 -342
-1 -208 -79 -367 -196 -399 -53 -15 -66 -14 -129 8 -50 18 -55 18 -55 3 0 -9
-5 -81 -10 -159 -10 -156 -27 -209 -75 -231 -39 -18 -52 -15 -78 21 -46 61
-52 120 -52 547 0 414 4 460 45 528 21 34 53 42 89 22z"/>
<path d="M5188 5843 c-28 -31 -52 -93 -41 -104 12 -11 81 16 109 42 26 24 31
58 12 77 -20 20 -53 14 -80 -15z"/>
<path d="M4188 5758 c-44 -25 -58 -54 -58 -116 0 -79 16 -118 56 -137 74 -35
126 6 140 111 17 140 -40 199 -138 142z"/>
</g>
</svg>
